<svg width="123" height="123" viewBox="0 0 123 123" fill="none" xmlns="http://www.w3.org/2000/svg">
<path d="M36.9341 123C33.5485 123 30.6492 121.795 28.2361 119.384C25.8231 116.973 24.6186 114.078 24.6227 110.7C24.6227 107.317 25.8293 104.421 28.2423 102.01C30.6553 99.5992 33.5526 98.3959 36.9341 98.4C40.3198 98.4 43.2191 99.6054 45.6321 102.016C48.0451 104.427 49.2496 107.322 49.2455 110.7C49.2455 114.082 48.039 116.979 45.626 119.39C43.2129 121.801 40.3156 123.004 36.9341 123ZM98.491 123C95.1054 123 92.206 121.795 89.793 119.384C87.38 116.973 86.1755 114.078 86.1796 110.7C86.1796 107.317 87.3861 104.421 89.7992 102.01C92.2122 99.5992 95.1095 98.3959 98.491 98.4C101.877 98.4 104.776 99.6054 107.189 102.016C109.602 104.427 110.806 107.322 110.802 110.7C110.802 114.082 109.596 116.979 107.183 119.39C104.77 121.801 101.873 123.004 98.491 123ZM25.8539 12.3H116.65C119.01 12.3 120.805 13.3516 122.037 15.4549C123.268 17.5582 123.319 19.6841 122.19 21.8325L100.338 61.1925C99.2092 63.2425 97.6949 64.8312 95.7948 65.9587C93.8948 67.0863 91.8182 67.65 89.5653 67.65H43.7054L36.9341 79.95H110.802V92.25H36.9341C32.3174 92.25 28.8291 90.2246 26.4695 86.1738C24.1098 82.123 24.0072 78.1009 26.1617 74.1075L34.4718 59.04L12.3114 12.3H0V0H20.006L25.8539 12.3Z" fill="white"/>
</svg>
