<svg width="127" height="121" viewBox="0 0 127 121" fill="none" xmlns="http://www.w3.org/2000/svg">
<path d="M114.518 90.3333C117.971 90.3333 120.882 91.5377 123.251 93.9466C125.619 96.3555 126.784 99.1658 126.744 102.378L78.3852 120.444L36.2297 108.4V54.2H47.973L91.7545 70.3997C94.886 71.6443 96.4518 73.8926 96.4518 77.1446C96.4518 79.0316 95.7693 80.6776 94.4043 82.0828C93.0392 83.488 91.3129 84.2307 89.2252 84.311H72.363L61.8241 80.2761L59.8368 85.937L72.363 90.3333H114.518ZM90.4296 7.40733C94.6853 2.46911 100.105 0 106.69 0C112.15 0 116.767 2.00741 120.541 6.02222C124.315 10.037 126.322 14.6541 126.563 19.8733C126.563 24.0086 124.556 28.9468 120.541 34.688C116.526 40.4291 112.571 45.2268 108.677 49.0811C104.783 52.9353 98.7001 58.6564 90.4296 66.2444C82.0788 58.6564 75.9361 52.9353 72.0016 49.0811C68.0671 45.2268 64.1125 40.4291 60.1379 34.688C56.1632 28.9468 54.216 24.0086 54.2963 19.8733C54.2963 14.4132 56.2435 9.79614 60.1379 6.02222C64.0322 2.24829 68.7296 0.240889 74.2299 0C80.6535 0 86.0535 2.46911 90.4296 7.40733ZM0 54.2H24.1852V120.444H0V54.2Z" fill="white"/>
</svg>
