<svg width="254" height="231" viewBox="0 0 254 231" fill="none" xmlns="http://www.w3.org/2000/svg">
<path fill-rule="evenodd" clip-rule="evenodd" d="M11.512 0C8.45882 0 5.5307 1.21287 3.37178 3.37178C1.21287 5.5307 0 8.45882 0 11.512V172.68C0 188.267 10.3263 201.437 24.509 205.742C26.6204 212.707 30.878 218.827 36.6741 223.228C42.4701 227.629 49.5085 230.087 56.7844 230.25C64.0603 230.414 71.2019 228.275 77.1897 224.138C83.1775 220.001 87.7056 214.079 90.1274 207.216H163.125C165.547 214.079 170.075 220.001 176.063 224.138C182.05 228.275 189.192 230.414 196.468 230.25C203.744 230.087 210.782 227.629 216.578 223.228C222.374 218.827 226.632 212.707 228.743 205.742C235.837 203.591 242.05 199.215 246.465 193.262C250.881 187.308 253.264 180.092 253.264 172.68V126.632C253.264 119.073 251.775 111.588 248.882 104.605C245.99 97.6212 241.75 91.2758 236.405 85.9309C231.06 80.5859 224.715 76.3461 217.731 73.4534C210.748 70.5608 203.263 69.072 195.704 69.072H149.656V11.512C149.656 8.45882 148.443 5.5307 146.284 3.37178C144.125 1.21287 141.197 0 138.144 0H11.512ZM163.136 184.192H149.656V92.0959H195.704C204.863 92.0959 213.648 95.7345 220.125 102.211C226.601 108.688 230.24 117.472 230.24 126.632V172.68C230.241 174.192 229.944 175.689 229.365 177.086C228.787 178.483 227.937 179.751 226.867 180.819C223.924 174.654 219.218 169.5 213.346 166.009C207.473 162.518 200.697 160.848 193.875 161.209C187.052 161.57 180.49 163.946 175.019 168.037C169.548 172.128 165.412 177.75 163.136 184.192ZM49.421 187.565C50.4829 186.465 51.7532 185.588 53.1577 184.985C54.5622 184.382 56.0728 184.064 57.6014 184.051C59.13 184.038 60.6458 184.329 62.0606 184.908C63.4754 185.487 64.7607 186.341 65.8416 187.422C66.9225 188.503 67.7773 189.788 68.3562 191.203C68.935 192.618 69.2263 194.134 69.213 195.662C69.1997 197.191 68.8821 198.702 68.2788 200.106C67.6755 201.511 66.7985 202.781 65.6989 203.843C63.5278 205.94 60.6198 207.1 57.6014 207.074C54.583 207.048 51.6956 205.837 49.5612 203.703C47.4268 201.568 46.2161 198.681 46.1899 195.662C46.1636 192.644 47.324 189.736 49.421 187.565ZM184.192 195.704C184.192 192.651 185.405 189.723 187.564 187.564C189.723 185.405 192.651 184.192 195.704 184.192C198.757 184.192 201.685 185.405 203.844 187.564C206.003 189.723 207.216 192.651 207.216 195.704C207.216 198.757 206.003 201.685 203.844 203.844C201.685 206.003 198.757 207.216 195.704 207.216C192.651 207.216 189.723 206.003 187.564 203.844C185.405 201.685 184.192 198.757 184.192 195.704Z" fill="#385541"/>
</svg>
