<svg width="116" height="121" viewBox="0 0 116 121" fill="none" xmlns="http://www.w3.org/2000/svg">
<path d="M97.2361 54.3233V36.2155H85.1643V54.3233H67.0565V66.3952H85.1643V84.5029H97.2361V66.3952H115.344V54.3233M48.9487 66.3952V18.1078C48.9487 8.08814 40.8606 0 30.841 0C20.8213 0 12.7332 8.08814 12.7332 18.1078V66.3952C-0.606182 76.4148 -3.32235 95.3072 6.69729 108.647C16.7169 121.986 35.6094 124.702 48.9487 114.683C62.2881 104.663 65.0043 85.7705 54.9847 72.4311C53.2858 70.1286 51.2512 68.094 48.9487 66.3952ZM30.841 12.0718C34.1607 12.0718 36.8769 14.788 36.8769 18.1078V36.2155H24.8051V18.1078C24.8051 14.788 27.5212 12.0718 30.841 12.0718Z" fill="white"/>
</svg>
